<svg id="圖層_1" data-name="圖層 1" xmlns="http://www.w3.org/2000/svg" viewBox="0 0 169 225"><defs><style>.cls-1{fill:#754c24;}.cls-2,.cls-4{fill:none;stroke-miterlimit:10;}.cls-2{stroke:#2a4254;stroke-width:2.23px;}.cls-3{fill:#5694c3;}.cls-4{stroke:#f8f8f8;stroke-width:3px;}.cls-5{fill:#2a4254;}.cls-6{fill:#f8f8f8;}.cls-7{fill:#e8473e;}</style></defs><title>element</title><path class="cls-1" d="M85.42,164.79S63.18,154.48,55,149.94c-9.29-5.14-27.09-12-30.81-8.44s7.6,21.79,18.63,34.67S76.72,206.5,76.72,206.5Z"/><line class="cls-2" x1="32.99" y1="215.34" x2="32.99" y2="80.54"/><path class="cls-3" d="M32.61,126.69s5.72-2.9,5.72-6.47c0-2.44-2.66-4.56-4.35-5.66,2.78-2,8.83-7.08,8.83-13,0-7.7-10.2-13.94-10.2-13.94s-10.2,6.24-10.2,13.94c0,5.92,6.05,11,8.83,13-1.7,1.1-4.36,3.22-4.36,5.66C26.88,123.79,32.61,126.69,32.61,126.69ZM30.12,96.83a1.25,1.25,0,1,1,1.24-1.24A1.25,1.25,0,0,1,30.12,96.83Z"/><path class="cls-4" d="M156.35,181.14c-7.45-22.28-27.63-54.12-27.63-56.65,0-15.88-16.91-28.34-32.79-28.34A28.72,28.72,0,0,0,72.1,108.81a28.67,28.67,0,0,1,3.78,25.42c-18.79,14.52-33,44.72-37.51,81.49H164A178.92,178.92,0,0,0,156.35,181.14Z"/><path class="cls-1" d="M156.35,181.14c-7.45-22.28-27.63-54.12-27.63-56.65,0-15.88-16.91-28.34-32.79-28.34A28.72,28.72,0,0,0,72.1,108.81a28.67,28.67,0,0,1,3.78,25.42c-18.79,14.52-33,44.72-37.51,81.49H164A178.92,178.92,0,0,0,156.35,181.14Z"/><polygon class="cls-5" points="76.03 104.15 55.04 100.2 92.29 114.77 76.03 104.15"/><polygon class="cls-5" points="76.03 104.15 55.04 100.2 84.19 100.2 92.29 114.77 76.03 104.15"/><path class="cls-1" d="M126.34,205c-6.44-19.27-3.28-43.15-11-54.93-.69-1.05-5.26-8.68-10.92-12.7s-10.1-5.87-16.51-5.87a24.83,24.83,0,0,0-20.61,10.95c-17.67,27.09-25.12,49-28.26,73.31h91.86C130,212,127.5,208.41,126.34,205Z"/><polygon class="cls-6" points="84.19 100.2 92.29 114.77 107 110 84.19 100.2"/><path class="cls-7" d="M46.88,66.93c0,7.42-13.44,17-13.44,17S20,74.35,20,66.93s10.71-10.09,13.44-4.62C36.28,56.74,46.88,59.5,46.88,66.93Z"/></svg>