<svg id="圖層_1" data-name="圖層 1" xmlns="http://www.w3.org/2000/svg" viewBox="0 0 169 225"><defs><style>.cls-1{fill:#2a4254;}.cls-2{fill:#316f9e;}.cls-3{fill:none;stroke:#2a4254;stroke-miterlimit:10;stroke-width:2.23px;}.cls-4{fill:#a1d2f6;}.cls-5{fill:#5694c3;}.cls-6{fill:#e8473e;}.cls-7{fill:#e58a58;}.cls-8{fill:#f8f8f8;}.cls-9{fill:#ffe245;}</style></defs><title>element</title><path class="cls-1" d="M85.42,164.79S63.18,154.48,55,149.94c-9.29-5.14-27.09-12-30.81-8.44s7.6,21.79,18.63,34.67S76.72,206.5,76.72,206.5Z"/><path class="cls-2" d="M46.57,105.51c-2,0-3.77,2.2-4.68,3.6-1.67-2.3-5.85-7.3-10.75-7.3-6.36,0-11.51,8.43-11.51,8.43s5.15,8.43,11.51,8.43c4.9,0,9.08-5,10.75-7.3.91,1.4,2.66,3.6,4.68,3.6,3,0,5.34-4.73,5.34-4.73S49.52,105.51,46.57,105.51Zm-20.36,3.7a1,1,0,1,1,1-1A1,1,0,0,1,26.21,109.21Z"/><line class="cls-3" x1="32.99" y1="215.34" x2="32.99" y2="80.54"/><path class="cls-4" d="M16.29,125.27S18.68,130,21.64,130c2,0,3.76-2.2,4.67-3.6,1.67,2.3,5.85,7.3,10.75,7.3,6.36,0,11.51-8.43,11.51-8.43s-5.15-8.43-11.51-8.43c-4.9,0-9.08,5-10.75,7.3-.91-1.4-2.66-3.6-4.67-3.6C18.68,120.54,16.29,125.27,16.29,125.27ZM41,123.21a1,1,0,1,1,1,1A1,1,0,0,1,41,123.21Z"/><path class="cls-5" d="M16.29,95.21s2.39,4.73,5.35,4.73c2,0,3.76-2.2,4.67-3.6,1.67,2.3,5.85,7.3,10.75,7.3,6.36,0,11.51-8.43,11.51-8.43s-5.15-8.43-11.51-8.43c-4.9,0-9.08,5-10.75,7.3-.91-1.4-2.66-3.6-4.67-3.6C18.68,90.48,16.29,95.21,16.29,95.21ZM41,93.15a1,1,0,1,1,1,1A1,1,0,0,1,41,93.15Z"/><polygon class="cls-6" points="45.53 71.65 33.24 85.31 20.96 71.65 33.24 58 45.53 71.65"/><path class="cls-1" d="M156.35,181.14c-7.45-22.28-27.63-54.12-27.63-56.65,0-15.88-16.91-28.34-32.79-28.34A28.72,28.72,0,0,0,72.1,108.81a28.67,28.67,0,0,1,3.78,25.42c-18.79,14.52-33,44.72-37.51,81.49H164A178.92,178.92,0,0,0,156.35,181.14Z"/><polygon class="cls-7" points="76.03 104.15 55.04 100.2 92.29 114.77 76.03 104.15"/><polygon class="cls-1" points="76.03 104.15 55.04 100.2 84.19 100.2 76.03 104.15"/><path class="cls-7" d="M128.72,124.49a24.66,24.66,0,0,0-6.16-15.91L117.1,118l-7,12.12h21.29C129.74,127.09,128.72,125.05,128.72,124.49Z"/><path class="cls-8" d="M126.34,205c-6.44-19.27-3.28-43.15-11-54.93-.69-1.05-5.26-8.68-10.92-12.7s-10.1-5.87-16.51-5.87a24.83,24.83,0,0,0-20.61,10.95c-17.67,27.09-25.12,49-28.26,73.31h91.86C130,212,127.5,208.41,126.34,205Z"/><path class="cls-9" d="M121.35,93l-4.59,2.11-1.51-5.84L112.06,77l-9,8.87-3.92,3.86L96.65,86,92.24,97.74s3.1,2.46,12.76,5.17,14.19,2.4,14.19,2.4Z"/></svg>