<svg id="圖層_1" data-name="圖層 1" xmlns="http://www.w3.org/2000/svg" viewBox="0 0 169 285"><defs><style>.cls-1{fill:#fff;}.cls-2{fill:#435868;}.cls-3{fill:#5693c2;}.cls-4{fill:#2a4254;}.cls-5{fill:#e48958;}.cls-6{fill:#f7f7f7;}.cls-7{fill:#ffe145;}</style></defs><title>element</title><path class="cls-1" d="M63.76,277.6c-10.36,0-21.37-3.08-21.37-8.78S53.4,260,63.76,260s21.37,3.08,21.37,8.78S74.12,277.6,63.76,277.6Zm0-14.56c-11.21,0-18.37,3.42-18.37,5.78s7.16,5.78,18.37,5.78,18.37-3.43,18.37-5.78S75,263,63.76,263Z"/><path class="cls-1" d="M86.43,282.6c-10.36,0-21.37-3.08-21.37-8.78s11-8.78,21.37-8.78,21.37,3.08,21.37,8.78S96.79,282.6,86.43,282.6Zm0-14.56c-11.21,0-18.37,3.42-18.37,5.78s7.16,5.78,18.37,5.78,18.37-3.43,18.37-5.78S97.64,268,86.43,268Z"/><path class="cls-1" d="M154.07,130.59c-2.47-5.94-4.43-17.23-6.7-30.31-2.63-15.11-5.6-32.24-10.07-45.11-8-23-28-27.23-28.18-27.27l.59-2.94c.89.18,21.87,4.63,30.42,29.23,4.56,13.1,7.55,30.35,10.19,45.58,2.24,12.9,4.17,24,6.52,29.67Z"/><path class="cls-1" d="M150.93,133.73c-2.47-5.94-4.43-17.23-6.7-30.31-2.62-15.11-5.6-32.24-10.07-45.11-8-22.92-28-27.23-28.18-27.27l.59-2.94c.89.17,21.87,4.63,30.42,29.22,4.56,13.11,7.55,30.36,10.19,45.58,2.24,12.91,4.18,24,6.52,29.67Z"/><path class="cls-1" d="M95.4,78.78c-11,0-22-3.07-31.92-11.74l-1.36-1.18,1.66-1.31a29.78,29.78,0,0,0-4.05-25.92l-.6-.85.58-.86A32.8,32.8,0,0,1,86.89,22.48c17.54,0,37.15,13.8,37.21,32.27.25,1.13,3.2,6.47,6.32,12.11l1.81,3.29-1.59.63C120,74.94,107.69,78.78,95.4,78.78ZM66.55,65.72c18.93,15.61,41.5,10.46,61.4,2.88l-.16-.29c-5.43-9.83-6.69-12.25-6.69-13.48C121.1,38,103,25.48,86.89,25.48a29.76,29.76,0,0,0-24.11,12.3,32.75,32.75,0,0,1,3.77,27.94Zm57.55-10.9h0Z"/><path class="cls-1" d="M162.72,155.65H22.53l.21-1.69c4.87-39.47,20.12-72.83,40.8-89.22l1-.78.94.83C85.11,82,108.88,76,129.55,68l1.22-.48.64,1.15c6.07,11,17.38,31.54,22.68,47.38A195.58,195.58,0,0,1,162.51,154Zm-136.79-3H159.32A190.93,190.93,0,0,0,151.24,117c-5-15-15.67-34.56-21.83-45.73-19.74,7.56-44.58,13.58-65-3.39C45.15,83.81,30.85,115.29,25.93,152.65Z"/><path class="cls-1" d="M82.38,45.65,41.83,29.78l.83-2.87L65.8,31.27,83.75,43ZM57.85,32.83l12.08,4.73-5.27-3.45Z"/><path class="cls-1" d="M65.44,34.26,42.1,29.86l.28-3H74.11l.66,2.85Zm-7-4.37L65,31.13l2.56-1.24Z"/><path class="cls-1" d="M126.92,155.65H23.29L23.5,154c3.72-28.77,13-52.83,31-80.44a28.58,28.58,0,0,1,23.69-12.6,29.11,29.11,0,0,1,17.68,5.77L108,50.4l12.16,4.42L125.59,58l.2.39c1.15,2.19,2.78,5.14,4.67,8.56l3,5.43-1.21.75a48.45,48.45,0,0,1-23.69,7.56l.76,1.15c4.77,7.29,5.85,18.52,7,30.42,1,10,2,20.33,5.11,29.72h0a39.81,39.81,0,0,0,2.16,4.84,35.13,35.13,0,0,1,2.88,7Zm-100.21-3H123c-.57-1.51-1.33-3-2.06-4.51a40.14,40.14,0,0,1-2.32-5.23h0c-3.25-9.71-4.27-20.22-5.25-30.38-1.12-11.52-2.17-22.39-6.53-29.07-.66-1-1.37-2-2.21-3.22l-1.23-1.71,2-.6a3.75,3.75,0,0,1,1.15-.21,45,45,0,0,0,22.91-6.42l-1.61-2.92c-1.79-3.24-3.35-6.06-4.49-8.23l-4.62-2.67L109,54,96.45,71l-1.22-1a26.39,26.39,0,0,0-17-6.06A25.56,25.56,0,0,0,57,75.18C39.62,101.83,30.5,125.1,26.71,152.65Z"/><path class="cls-1" d="M19.35,208.38a3.45,3.45,0,0,1-1.8-.46c-6.4-3.72-2.49-27.8-1.18-33.57.39-1.74.77-3.29,1.14-4.79,1.57-6.41,2.92-11.95,4.61-28.4,4.06-39.63,32.31-67.62,32.59-67.89l2.55-2.49v3.56c0,3.71-.12,91.12-9.6,105.56C42.49,187.79,27.14,208.38,19.35,208.38ZM54.24,78.17C47.27,86,28.33,110,25.1,141.47h0c-1.71,16.66-3.08,22.28-4.68,28.8-.36,1.49-.74,3-1.13,4.75-2.69,11.85-3.34,28.5-.23,30.31,2.36,1.36,14.65-9.63,26.09-27.07C53.07,166.19,54.11,95.51,54.24,78.17Z"/><path class="cls-1" d="M90.92,279.19a73.87,73.87,0,0,1-31.55-7.05c-14.19-6.81-24.15-17.92-28-31.28-.67-2.31-1.32-4.49-1.93-6.57-7.71-26.13-10.9-36.95-6.66-80.29,3.85-39.5,10-48.49,23.5-68.19,2.45-3.58,5.24-7.65,8.26-12.29a28.58,28.58,0,0,1,23.69-12.6,29.11,29.11,0,0,1,17.68,5.77L108,50.4l12.16,4.42L125.59,58l.2.39c1.15,2.19,2.78,5.14,4.67,8.56l3,5.43-1.21.75a48.45,48.45,0,0,1-23.69,7.56l.76,1.15c4.77,7.29,5.85,18.52,7,30.42,1,10,2,20.33,5.11,29.72h0c.33,1,5.22,1.72,7.56,2.08,4.87.75,9.46,1.45,10.3,4.39,1.15,2.84,18.31,46.34,8.81,77.79-7.46,24.67-13.44,40.25-33.61,48.59A62,62,0,0,1,90.92,279.19ZM78.19,63.92A25.56,25.56,0,0,0,57,75.18c-3,4.65-5.82,8.73-8.29,12.33-13.19,19.26-19.21,28.05-23,66.78-4.17,42.76-1.25,52.67,6.56,79.15.61,2.09,1.26,4.27,1.93,6.58,4.68,16.06,17,24.86,26.46,29.41,16.58,8,37.26,9,52.66,2.61,19-7.84,24.69-22.87,31.89-46.69,9.31-30.82-8.57-75.43-8.75-75.88l-.07-.2c-.27-1.1-5.4-1.88-7.87-2.26-4.85-.75-9-1.39-10-4.1h0c-3.25-9.71-4.27-20.22-5.25-30.38-1.12-11.52-2.17-22.39-6.53-29.07-.66-1-1.37-2-2.21-3.22l-1.23-1.71,2-.6a3.75,3.75,0,0,1,1.15-.21,45,45,0,0,0,22.91-6.42l-1.61-2.92c-1.79-3.24-3.35-6.06-4.49-8.23l-4.62-2.67L109,54,96.45,71l-1.22-1A26.39,26.39,0,0,0,78.19,63.92Z"/><path class="cls-1" d="M147,229l-2.88-.62c0-.3.62-30.44-4.82-47.25-.55-1.68-1-3.32-1.4-4.92.11,1.35.24,2.79.39,4.31.74,7.14,1.72,12.93,2.59,18,1.84,10.88,3.06,18.07-.39,26-1.28,2.93-3.46,2.82-4.34,2.63-8.59-1.8-23.71-37.45-23.7-61.16,0-34.54,5.09-54.26,5.14-54.45L129.82,72l-1-1.9,2.63-1.45c6.07,11,17.38,31.54,22.68,47.38.65,2,1.26,3.64,1.82,5.22,2.78,7.79,4.61,12.93,6.6,32.75C165.59,184.72,147.72,227.23,147,229ZM131.83,75.66l-11.4,36.72c0,.13-5,19.52-5,53.63,0,23.89,15.44,57,21.31,58.22.2,0,.54.11,1-.9,3.09-7.06,2-13.53.18-24.25-.87-5.16-1.86-11-2.61-18.23-2.31-22.36.81-27.34,1.18-27.84l2.69,1.1a65,65,0,0,0,3,26.12c3.88,12,4.78,29.91,5,40.21,5-13.7,14.71-43.65,12.46-66.14-1.95-19.46-3.74-24.46-6.44-32-.57-1.6-1.19-3.31-1.85-5.28C146.82,103.75,138.07,87.09,131.83,75.66Z"/><path class="cls-1" d="M113,35.39l-1.51-.55c-.12-.05-12.18-4.43-18.37-6.17-6.41-1.8-8.63-3.46-8.86-3.65l-.85-.68L87.7,12.93l2.24,3.35,9-8.87,3.52,13.53,13.36,4.53ZM87,23.21a35.45,35.45,0,0,0,6.9,2.58c5,1.41,13.59,4.44,17.06,5.68l1.17-4.08L100,23.26,97.35,13.19,89.47,21l-1-1.52Z"/><path class="cls-1" d="M128,62.5H99.72l15.94-27.59L117,36.54a28.37,28.37,0,0,1,7.07,18.21,36.3,36.3,0,0,0,2.72,5.54Zm-23.09-3H123c-1.59-3.06-1.9-4-1.9-4.67a24.77,24.77,0,0,0-5-14.65Zm19.18-4.68h0Z"/><path class="cls-1" d="M147.79,136.87c-2.47-5.94-4.43-17.23-6.7-30.31C138.47,91.45,135.5,74.32,131,61.45c-8-23-28-27.23-28.18-27.27l.59-2.94c.89.17,21.87,4.63,30.42,29.22C138.41,73.57,141.4,90.82,144,106c2.24,12.91,4.18,24,6.52,29.67Z"/><path class="cls-1" d="M144.65,140c-2.47-5.94-4.43-17.24-6.7-30.32-2.62-15.11-5.59-32.23-10.07-45.1-8-22.92-28-27.23-28.18-27.27l.59-2.94c.89.17,21.87,4.63,30.42,29.22,4.56,13.1,7.55,30.36,10.2,45.58,2.23,12.9,4.17,24,6.51,29.67Z"/><ellipse class="cls-2" cx="63.76" cy="268.82" rx="19.87" ry="7.28"/><ellipse class="cls-2" cx="86.43" cy="273.82" rx="19.87" ry="7.28"/><path class="cls-3" d="M154.76,130.3c-2.44-5.86-4.39-17.11-6.65-30.15C145.48,85,142.5,67.85,138,54.92c-8.13-23.38-28.53-27.71-28.73-27.76l.29-1.47c.22,0,21.45,4.55,29.86,28.74C144,67.48,147,84.7,149.58,99.89c2.25,13,4.19,24.13,6.57,29.83Z"/><path class="cls-3" d="M151.62,133.44c-2.44-5.86-4.39-17.12-6.65-30.15-2.63-15.14-5.61-32.3-10.1-45.23-8.14-23.39-28.53-27.72-28.74-27.76l.29-1.47c.22.05,21.45,4.55,29.86,28.74,4.54,13.05,7.53,30.27,10.16,45.46,2.25,13,4.19,24.13,6.57,29.83Z"/><path class="cls-4" d="M130.09,69.38c-4.35-7.89-7.49-13.51-7.49-14.55C122.6,37.55,104.18,24,86.89,24A31.29,31.29,0,0,0,61,37.76a31.25,31.25,0,0,1,4.12,27.67c-.2.16-.4.33-.6.48C83.6,82.64,106.92,78.42,130.09,69.38Z"/><path class="cls-2" d="M130.09,69.38c-23.17,9-46.49,13.26-65.62-3.47-20.16,16-35.35,48.61-40.24,88.24H161a194.44,194.44,0,0,0-8.35-37.65C147.62,101.42,137.24,82.33,130.09,69.38Z"/><polygon class="cls-5" points="65.23 32.69 42.38 28.39 82.93 44.25 65.23 32.69"/><polygon class="cls-4" points="65.23 32.69 42.38 28.39 74.11 28.39 65.23 32.69"/><path class="cls-6" d="M120,142.43c-7-21-3.57-47-12-59.79-.74-1.14-1.49-2.22-2.25-3.28a2.91,2.91,0,0,1,.73-.14,47,47,0,0,0,24.92-7.38c-2.9-5.28-5.39-9.73-7-12.78l-5.11-3-10.87-3.92L96.17,68.81a27.81,27.81,0,0,0-18-6.39A27,27,0,0,0,55.76,74.34C36.52,103.83,28.42,127.65,25,154.15H125C124,150.11,121.26,146.19,120,142.43Z"/><path class="cls-2" d="M23.61,141.32c-2.09,20.42-3.7,24.23-5.78,33.37-2.35,10.35-4,29.35.47,31.93s18.81-13.36,28.11-27.54S55.76,74.34,55.76,74.34,27.67,101.76,23.61,141.32Z"/><path class="cls-6" d="M120,142.43c-7-21-3.57-47-12-59.79-.74-1.14-1.49-2.22-2.25-3.28a2.91,2.91,0,0,1,.73-.14,47,47,0,0,0,24.92-7.38c-2.9-5.28-5.39-9.73-7-12.78l-5.11-3-10.87-3.92L96.17,68.81a27.81,27.81,0,0,0-18-6.39A27,27,0,0,0,55.76,74.34c-19.24,29.49-27,33.35-31.53,79.81s-.64,54.78,8.54,86.29c9.61,33,53.79,44.31,81.14,33,19-7.86,25.09-22.34,32.74-47.65,9.58-31.68-8.79-76.87-8.79-76.87C136.85,144.87,121.26,146.19,120,142.43Z"/><path class="cls-2" d="M130.09,69.38c7.15,13,17.53,32,22.58,47.12,3.84,11.48,6,14,8.35,37.65,3.08,30.69-15.44,74.28-15.44,74.28s.69-30.49-4.9-47.74a65.66,65.66,0,0,1-3-26.79s-3.21,4.36-.9,26.79,7.13,32.24,2.31,43.24S113.89,193.62,113.91,166c0-34.74,5.09-54.07,5.09-54.07l12.45-40.1"/><path class="cls-7" d="M114,26.43,101.22,22.1l-1-3.81-2.08-8-5.88,5.79-2.56,2.53-1.63-2.43-2.89,7.66s2,1.61,8.34,3.38S112,33.43,112,33.43Z"/><path class="cls-7" d="M122.6,54.83a26.83,26.83,0,0,0-6.72-17.32l-5.94,10.3L102.32,61h23.17C123.7,57.67,122.6,55.45,122.6,54.83Z"/><path class="cls-3" d="M148.48,136.58c-2.44-5.86-4.39-17.12-6.65-30.15-2.63-15.14-5.61-32.3-10.1-45.23C123.59,37.81,103.2,33.48,103,33.44l.3-1.47c.21,0,21.44,4.55,29.85,28.74,4.54,13,7.53,30.27,10.17,45.46,2.24,13,4.18,24.13,6.56,29.83Z"/><path class="cls-3" d="M145.34,139.72c-2.44-5.86-4.39-17.12-6.65-30.15-2.63-15.14-5.61-32.3-10.1-45.23C120.45,41,100.06,36.62,99.85,36.58l.3-1.47c.21,0,21.44,4.55,29.85,28.74,4.54,13,7.53,30.27,10.17,45.46,2.24,13,4.18,24.13,6.56,29.83Z"/></svg>