<svg id="圖層_1" data-name="圖層 1" xmlns="http://www.w3.org/2000/svg" viewBox="0 0 169 225"><defs><style>.cls-1,.cls-5{fill:#435868;}.cls-1,.cls-4{stroke:#f8f8f8;stroke-width:3px;}.cls-1,.cls-2,.cls-4{stroke-miterlimit:10;}.cls-2,.cls-4{fill:none;}.cls-2{stroke:#2a4254;stroke-width:2.23px;}.cls-3{fill:#282828;}.cls-6{fill:#2a4254;}.cls-7{fill:#f8f8f8;}.cls-8{fill:#5694c3;}</style></defs><title>element</title><path class="cls-1" d="M85.42,164.79S63.18,154.48,55,149.94c-9.29-5.14-27.09-12-30.81-8.44s7.6,21.79,18.63,34.67S76.72,206.5,76.72,206.5Z"/><line class="cls-2" x1="32.99" y1="187.58" x2="32.99" y2="76.92"/><path class="cls-3" d="M33.36,58S20.83,66.94,20.83,73.86c0,6.13,7.74,8.85,11.35,5.8a5,5,0,0,1-1.12,2.92c1.53,2,3.07,2,4.6,0a5,5,0,0,1-1.13-2.93c3.58,3,11.36.32,11.36-5.79C45.89,66.94,33.36,58,33.36,58Z"/><path class="cls-4" d="M164,215.72a194.61,194.61,0,0,0-8.35-37.65c-4.74-14.15-14.18-31.83-21.22-44.66h0c-.1-.17-.19-.34-.28-.51-.63-1.13-1.24-2.24-1.81-3.29h0c-2-3.61-3.7-6.69-4.89-9l-5.11-3-10.87-3.92L99.17,130.38a27.81,27.81,0,0,0-18-6.39,27,27,0,0,0-13.4,3.56l-.26-.11c-.46.36-.91.74-1.36,1.11a27.39,27.39,0,0,0-6.91,6.67c-16,17.6-27.83,46.45-32,80.5Z"/><path class="cls-5" d="M164,215.72a194.61,194.61,0,0,0-8.35-37.65c-4.74-14.15-14.18-31.83-21.22-44.66h0c-.1-.17-.19-.34-.28-.51-.63-1.13-1.24-2.24-1.81-3.29h0c-2-3.61-3.7-6.69-4.89-9l-5.11-3-10.87-3.92L99.17,130.38a27.81,27.81,0,0,0-18-6.39,27,27,0,0,0-13.4,3.56l-.26-.11c-.46.36-.91.74-1.36,1.11a27.39,27.39,0,0,0-6.91,6.67c-16,17.6-27.83,46.45-32,80.5Z"/><path class="cls-6" d="M125.6,116.4a26.86,26.86,0,0,0-6.72-17.32l-5.94,10.3-7.62,13.19h23.17C126.7,119.24,125.6,117,125.6,116.4Z"/><path class="cls-6" d="M132.36,129.61c-4-7.17-6.76-12.22-6.76-13.21,0-17.28-18.42-30.85-35.71-30.85A31.29,31.29,0,0,0,64,99.33,31.25,31.25,0,0,1,68.07,127l-.54.44c4.49,1.82,9,3.69,13.47,5.56C97.81,139.72,115.32,134.44,132.36,129.61Z"/><path class="cls-7" d="M112.67,116c-2.61-4.73-4.45-8.06-4.45-8.7C108.22,95.91,96.09,87,84.7,87a20.57,20.57,0,0,0-17.08,9.08,20.59,20.59,0,0,1,2.71,18.22l-.36.29c3,1.19,5.92,2.43,8.88,3.66C89.92,122.65,101.45,119.17,112.67,116Z"/><polygon class="cls-6" points="68.23 94.27 45.38 89.96 85.93 105.82 68.23 94.27"/><polygon class="cls-6" points="68.23 94.27 45.38 89.96 77.11 89.96 85.42 105.5 68.23 94.27"/><path class="cls-8" d="M32.61,126.69s5.72-2.9,5.72-6.47c0-2.44-2.66-4.56-4.35-5.66,2.78-2,8.83-7.08,8.83-13,0-7.7-10.2-13.94-10.2-13.94s-10.2,6.24-10.2,13.94c0,5.92,6.05,11,8.83,13-1.7,1.1-4.36,3.22-4.36,5.66C26.88,123.79,32.61,126.69,32.61,126.69ZM30.12,96.83a1.25,1.25,0,1,1,1.24-1.24A1.25,1.25,0,0,1,30.12,96.83Z"/></svg>