<svg id="圖層_1" data-name="圖層 1" xmlns="http://www.w3.org/2000/svg" viewBox="0 0 904.71 526.95"><defs><style>.cls-1{fill:#5694c4;}.cls-2{fill:#a1d2f7;}.cls-3{fill:#316f9e;}.cls-4{fill:#e9f5fe;}.cls-5{fill:#c7e7ff;}</style></defs><title>element</title><polygon class="cls-1" points="50.7 439.12 101.41 526.95 0 526.95 50.7 439.12"/><polygon class="cls-2" points="101.06 526.95 50.35 439.12 151.76 439.12 101.06 526.95"/><polygon class="cls-3" points="101.06 351.3 151.76 439.12 50.35 439.12 101.06 351.3"/><polygon class="cls-1" points="151.41 439.12 202.12 526.95 100.7 526.95 151.41 439.12"/><polygon class="cls-2" points="201.76 526.95 151.06 439.12 252.47 439.12 201.76 526.95"/><polygon class="cls-4" points="201.76 351.3 252.47 439.12 151.06 439.12 201.76 351.3"/><polygon class="cls-1" points="252.12 439.12 302.82 526.95 201.41 526.95 252.12 439.12"/><polygon class="cls-3" points="302.47 526.95 251.76 439.12 353.17 439.12 302.47 526.95"/><polygon class="cls-5" points="302.47 351.3 353.18 439.12 251.76 439.12 302.47 351.3"/><polygon class="cls-1" points="352.82 439.12 403.53 526.95 302.12 526.95 352.82 439.12"/><polygon class="cls-2" points="403.18 526.95 352.47 439.12 453.88 439.12 403.18 526.95"/><polygon class="cls-1" points="403.17 351.3 453.88 439.12 352.47 439.12 403.17 351.3"/><polygon class="cls-1" points="453.53 263.47 402.82 175.65 504.23 175.65 453.53 263.47"/><polygon class="cls-4" points="453.53 439.12 504.23 526.95 402.82 526.95 453.53 439.12"/><polygon class="cls-4" points="403.17 175.65 453.88 263.47 352.47 263.47 403.17 175.65"/><polygon class="cls-2" points="503.88 526.95 453.17 439.12 554.59 439.12 503.88 526.95"/><polygon class="cls-4" points="503.88 351.3 554.59 439.12 453.17 439.12 503.88 351.3"/><polygon class="cls-3" points="554.23 439.12 604.94 526.95 503.53 526.95 554.23 439.12"/><polygon class="cls-2" points="604.59 526.95 553.88 439.12 655.29 439.12 604.59 526.95"/><polygon class="cls-1" points="604.58 351.3 655.29 439.12 553.88 439.12 604.58 351.3"/><polygon class="cls-2" points="151.41 439.12 100.7 351.3 202.12 351.3 151.41 439.12"/><polygon class="cls-1" points="151.41 263.47 202.12 351.3 100.7 351.3 151.41 263.47"/><polygon class="cls-1" points="252.12 439.12 201.41 351.3 302.82 351.3 252.12 439.12"/><polygon class="cls-5" points="252.12 263.47 302.82 351.3 201.41 351.3 252.12 263.47"/><polygon class="cls-2" points="352.82 439.12 302.12 351.3 403.53 351.3 352.82 439.12"/><polygon class="cls-5" points="352.82 263.47 403.53 351.3 302.12 351.3 352.82 263.47"/><polygon class="cls-2" points="453.53 439.12 402.82 351.3 504.23 351.3 453.53 439.12"/><polygon class="cls-4" points="453.53 263.47 504.23 351.3 402.82 351.3 453.53 263.47"/><polygon class="cls-1" points="554.23 439.12 503.53 351.3 604.94 351.3 554.23 439.12"/><polygon class="cls-1" points="554.23 263.47 604.94 351.3 503.53 351.3 554.23 263.47"/><polygon class="cls-4" points="654.94 439.12 604.23 351.3 705.64 351.3 654.94 439.12"/><polygon class="cls-1" points="654.94 263.47 705.64 351.3 604.23 351.3 654.94 263.47"/><polygon class="cls-1" points="652.6 439.12 703.3 526.95 601.89 526.95 652.6 439.12"/><polygon class="cls-5" points="702.95 526.95 652.24 439.12 753.65 439.12 702.95 526.95"/><polygon class="cls-1" points="702.95 351.3 753.65 439.12 652.24 439.12 702.95 351.3"/><polygon class="cls-5" points="753.3 439.12 804.01 526.95 702.6 526.95 753.3 439.12"/><polygon class="cls-2" points="803.65 526.95 752.95 439.12 854.36 439.12 803.65 526.95"/><polygon class="cls-5" points="803.65 351.3 854.36 439.12 752.95 439.12 803.65 351.3"/><polygon class="cls-1" points="854.01 439.12 904.71 526.95 803.3 526.95 854.01 439.12"/><polygon class="cls-2" points="604.59 351.3 553.88 263.47 655.29 263.47 604.59 351.3"/><polygon class="cls-3" points="604.59 175.65 553.88 87.83 655.29 87.83 604.59 175.65"/><polygon class="cls-4" points="604.58 0 655.29 87.82 553.88 87.82 604.58 0"/><polygon class="cls-1" points="705.29 175.65 756 263.47 654.59 263.47 705.29 175.65"/><polygon class="cls-2" points="554.23 263.47 503.53 175.65 604.94 175.65 554.23 263.47"/><polygon class="cls-1" points="554.23 87.82 604.94 175.65 503.53 175.65 554.23 87.82"/><polygon class="cls-1" points="604.58 175.65 655.29 263.47 553.88 263.47 604.58 175.65"/><polygon class="cls-2" points="503.88 351.3 453.17 263.47 554.59 263.47 503.88 351.3"/><polygon class="cls-1" points="753.3 439.12 702.6 351.3 804.01 351.3 753.3 439.12"/><polygon class="cls-3" points="753.3 263.47 804.01 351.3 702.6 351.3 753.3 263.47"/><polygon class="cls-2" points="702.95 351.3 652.24 263.47 753.65 263.47 702.95 351.3"/><polygon class="cls-3" points="503.88 175.65 554.59 263.47 453.17 263.47 503.88 175.65"/><polygon class="cls-2" points="654.94 87.82 705.64 175.65 604.23 175.65 654.94 87.82"/><polygon class="cls-5" points="654.94 263.47 604.23 175.65 705.64 175.65 654.94 263.47"/><polygon class="cls-5" points="403.18 351.3 352.47 263.47 453.88 263.47 403.18 351.3"/><polygon class="cls-2" points="302.47 351.3 251.76 263.47 353.17 263.47 302.47 351.3"/><polygon class="cls-1" points="302.47 175.65 353.18 263.47 251.76 263.47 302.47 175.65"/></svg>