<svg id="圖層_1" data-name="圖層 1" xmlns="http://www.w3.org/2000/svg" viewBox="0 0 169 285"><defs><style>.cls-1{fill:#fff;}.cls-2{fill:#435868;}.cls-3{fill:#2a4254;}.cls-4{fill:#e48958;}.cls-5{fill:#f7f7f7;}.cls-6{fill:#ffe145;}</style></defs><title>element</title><path class="cls-1" d="M63.76,277.6c-10.36,0-21.37-3.08-21.37-8.78S53.4,260,63.76,260s21.37,3.08,21.37,8.78S74.12,277.6,63.76,277.6Zm0-14.56c-11.21,0-18.37,3.42-18.37,5.78s7.16,5.78,18.37,5.78,18.37-3.43,18.37-5.78S75,263,63.76,263Z"/><path class="cls-1" d="M86.43,282.6c-10.36,0-21.37-3.08-21.37-8.78s11-8.78,21.37-8.78,21.37,3.08,21.37,8.78S96.79,282.6,86.43,282.6Zm0-14.56c-11.21,0-18.37,3.42-18.37,5.78s7.16,5.78,18.37,5.78,18.37-3.43,18.37-5.78S97.64,268,86.43,268Z"/><path class="cls-1" d="M19.35,208.38a3.45,3.45,0,0,1-1.8-.46c-6.4-3.72-2.49-27.8-1.18-33.57.39-1.74.77-3.29,1.14-4.79,1.57-6.41,2.92-11.95,4.61-28.4,4.06-39.63,32.31-67.62,32.59-67.89A1.48,1.48,0,0,1,56.34,73a1.49,1.49,0,0,1,.92,1.38c0,3.71-.12,91.12-9.6,105.56C42.49,187.79,27.14,208.38,19.35,208.38ZM54.24,78.17C47.27,86,28.33,110,25.1,141.47h0c-1.71,16.66-3.08,22.28-4.68,28.8-.36,1.49-.74,3-1.13,4.75-2.69,11.85-3.34,28.5-.23,30.31,2.36,1.36,14.65-9.63,26.09-27.07C53.07,166.19,54.11,95.51,54.24,78.17Z"/><path class="cls-1" d="M95.4,78.78c-11,0-22-3.07-31.92-11.74A1.51,1.51,0,0,1,63,65.88a1.48,1.48,0,0,1,.57-1.14l.24-.19a29.78,29.78,0,0,0-4.05-25.92,1.51,1.51,0,0,1,0-1.71A32.8,32.8,0,0,1,86.89,22.48c17.54,0,37.15,13.8,37.21,32.27.25,1.13,3.2,6.47,6.32,12.11l1,1.79a1.53,1.53,0,0,1,.09,1.24,1.48,1.48,0,0,1-.86.89C120,74.94,107.69,78.78,95.4,78.78ZM66.55,65.72c18.93,15.61,41.5,10.46,61.4,2.88l-.16-.29c-5.43-9.83-6.69-12.25-6.69-13.48C121.1,38,103,25.48,86.89,25.48a29.76,29.76,0,0,0-24.11,12.3,32.75,32.75,0,0,1,3.77,27.94Zm57.55-10.9h0Z"/><path class="cls-1" d="M161,155.65H24.23A1.5,1.5,0,0,1,22.74,154c4.87-39.47,20.12-72.83,40.8-89.22a1.5,1.5,0,0,1,1.92.05C85.11,82,108.88,76,129.55,68a1.52,1.52,0,0,1,1.86.67c6.07,11,17.38,31.54,22.68,47.38A195.58,195.58,0,0,1,162.51,154a1.51,1.51,0,0,1-1.49,1.69Zm-135.09-3H159.32A190.93,190.93,0,0,0,151.24,117c-5-15-15.67-34.56-21.83-45.73-19.74,7.56-44.58,13.58-65-3.39C45.15,83.81,30.85,115.29,25.93,152.65Z"/><path class="cls-1" d="M82.93,45.75a1.52,1.52,0,0,1-.55-.1L41.83,29.78a1.5,1.5,0,0,1,.83-2.87l22.85,4.31a1.58,1.58,0,0,1,.54.22L83.75,43a1.5,1.5,0,0,1-.82,2.75ZM57.85,32.83l12.08,4.73-5.27-3.45Z"/><path class="cls-1" d="M65.23,34.19l-.28,0L42.1,29.86a1.5,1.5,0,0,1,.28-3H74.11a1.5,1.5,0,0,1,.66,2.85L65.88,34A1.47,1.47,0,0,1,65.23,34.19Zm-6.8-4.3L65,31.13l2.56-1.24Z"/><path class="cls-1" d="M90.92,279.19a73.87,73.87,0,0,1-31.55-7.05c-14.19-6.81-24.15-17.92-28-31.28-.67-2.31-1.32-4.49-1.93-6.57-7.71-26.13-10.9-36.95-6.66-80.29,3.85-39.5,10-48.49,23.5-68.19,2.45-3.58,5.24-7.65,8.26-12.29a28.58,28.58,0,0,1,23.69-12.6,29.11,29.11,0,0,1,17.68,5.77l11.42-15.4a1.49,1.49,0,0,1,1.71-.51l10.87,3.92a1.34,1.34,0,0,1,.24.12l5.11,3a1.5,1.5,0,0,1,.57.6c1.15,2.19,2.78,5.14,4.67,8.56l2.3,4.19a1.5,1.5,0,0,1-.52,2,48.45,48.45,0,0,1-23.69,7.56l.76,1.15c4.77,7.29,5.85,18.52,7,30.42,1,10,2,20.33,5.11,29.72h0c.33,1,5.22,1.72,7.56,2.08,4.87.75,9.46,1.45,10.3,4.39,1.15,2.84,18.31,46.34,8.81,77.79-7.46,24.67-13.44,40.25-33.61,48.59A62,62,0,0,1,90.92,279.19ZM78.19,63.92A25.56,25.56,0,0,0,57,75.18c-3,4.65-5.82,8.73-8.29,12.33-13.19,19.26-19.21,28.05-23,66.78-4.17,42.76-1.25,52.67,6.56,79.15.61,2.09,1.26,4.27,1.93,6.58,4.68,16.06,17,24.86,26.46,29.41,16.58,8,37.26,9,52.66,2.61,19-7.84,24.69-22.87,31.89-46.69,9.31-30.82-8.57-75.43-8.75-75.88a1.18,1.18,0,0,1-.07-.2c-.27-1.1-5.4-1.88-7.87-2.26-4.85-.75-9-1.39-10-4.1h0c-3.25-9.71-4.27-20.22-5.25-30.38-1.12-11.52-2.17-22.39-6.53-29.07-.66-1-1.37-2-2.21-3.22a1.5,1.5,0,0,1,.79-2.31,3.75,3.75,0,0,1,1.15-.21,45,45,0,0,0,22.91-6.42l-1.61-2.92c-1.79-3.24-3.35-6.06-4.49-8.23l-4.62-2.67L109,54,97.37,69.7a1.5,1.5,0,0,1-1,.6A1.54,1.54,0,0,1,95.23,70,26.39,26.39,0,0,0,78.19,63.92Z"/><path class="cls-1" d="M145.58,229.93a1.73,1.73,0,0,1-.32,0,1.49,1.49,0,0,1-1.18-1.5c0-.3.62-30.44-4.82-47.25-.55-1.68-1-3.32-1.4-4.92.11,1.35.24,2.79.39,4.31.74,7.14,1.72,12.93,2.59,18,1.84,10.88,3.06,18.07-.39,26-1.28,2.93-3.46,2.82-4.34,2.63-8.59-1.8-23.71-37.45-23.7-61.16,0-34.54,5.09-54.26,5.14-54.45L129.82,72l-1-1.9,2.63-1.45c6.07,11,17.38,31.54,22.68,47.38.65,2,1.26,3.64,1.82,5.22,2.78,7.79,4.61,12.93,6.6,32.75,3.08,30.72-14.79,73.23-15.55,75A1.5,1.5,0,0,1,145.58,229.93ZM131.83,75.66l-11.4,36.72c0,.13-5,19.52-5,53.63,0,23.89,15.44,57,21.31,58.22.2,0,.54.11,1-.9,3.09-7.06,2-13.53.18-24.25-.87-5.16-1.86-11-2.61-18.23-2.31-22.36.81-27.34,1.18-27.84a1.5,1.5,0,0,1,2.69,1.1,65,65,0,0,0,3,26.12c3.88,12,4.78,29.91,5,40.21,5-13.7,14.71-43.65,12.46-66.14-1.95-19.46-3.74-24.46-6.44-32-.57-1.6-1.19-3.31-1.85-5.28C146.82,103.75,138.07,87.09,131.83,75.66Z"/><path class="cls-1" d="M111.68,35.46c-1.68,0-6.67-.24-15.32-2.67-10.69-3-14.27-5.79-14.42-5.91a1.49,1.49,0,0,1-.47-1.7l4.8-12.76a1.49,1.49,0,0,1,2.65-.31l1.71,2.55,12.78-12.6a1.5,1.5,0,0,1,2.5.69l4.67,17.93,3.36-1.54a1.48,1.48,0,0,1,1.54.17,1.5,1.5,0,0,1,.56,1.45l-2.35,13.45a1.49,1.49,0,0,1-1.37,1.24ZM84.7,25.1c1.57.91,5.32,2.79,12.47,4.8A61.93,61.93,0,0,0,111,32.45l1.64-9.39-2.4,1.1a1.5,1.5,0,0,1-2.08-1L103.66,6l-12.21,12a1.5,1.5,0,0,1-1.2.43,1.52,1.52,0,0,1-1.1-.66l-1.1-1.63Z"/><path class="cls-1" d="M125.49,62.5H102.32a1.5,1.5,0,0,1-1.3-2.25l13.57-23.49a1.49,1.49,0,0,1,2.44-.22,28.37,28.37,0,0,1,7.07,18.21,36.3,36.3,0,0,0,2.72,5.54,1.51,1.51,0,0,1-1.33,2.21Zm-20.57-3H123c-1.59-3.06-1.9-4-1.9-4.67a24.77,24.77,0,0,0-5-14.65Zm19.18-4.68h0Z"/><ellipse class="cls-2" cx="63.76" cy="268.82" rx="19.87" ry="7.28"/><ellipse class="cls-2" cx="86.43" cy="273.82" rx="19.87" ry="7.28"/><path class="cls-2" d="M23.61,141.32c-2.09,20.42-3.7,24.23-5.78,33.37-2.35,10.35-4,29.35.47,31.93s18.81-13.36,28.11-27.54S55.76,74.34,55.76,74.34,27.67,101.76,23.61,141.32Z"/><path class="cls-3" d="M130.09,69.38c-4.35-7.89-7.49-13.51-7.49-14.55C122.6,37.55,104.18,24,86.89,24A31.29,31.29,0,0,0,61,37.76a31.25,31.25,0,0,1,4.12,27.67c-.2.16-.4.33-.6.48C83.6,82.64,106.92,78.42,130.09,69.38Z"/><path class="cls-2" d="M130.09,69.38c-23.17,9-46.49,13.26-65.62-3.47-20.16,16-35.35,48.61-40.24,88.24H161a194.44,194.44,0,0,0-8.35-37.65C147.62,101.42,137.24,82.33,130.09,69.38Z"/><polygon class="cls-4" points="65.23 32.69 42.38 28.39 82.93 44.25 65.23 32.69"/><polygon class="cls-3" points="65.23 32.69 42.38 28.39 74.11 28.39 65.23 32.69"/><path class="cls-5" d="M120,142.43c-7-21-3.57-47-12-59.79-.74-1.14-1.49-2.22-2.25-3.28a2.91,2.91,0,0,1,.73-.14,47,47,0,0,0,24.92-7.38c-2.9-5.28-5.39-9.73-7-12.78l-5.11-3-10.87-3.92L96.17,68.81a27.81,27.81,0,0,0-18-6.39A27,27,0,0,0,55.76,74.34c-19.24,29.49-27,33.35-31.53,79.81s-.64,54.78,8.54,86.29c9.61,33,53.79,44.31,81.14,33,19-7.86,25.09-22.34,32.74-47.65,9.58-31.68-8.79-76.87-8.79-76.87C136.85,144.87,121.26,146.19,120,142.43Z"/><path class="cls-2" d="M130.09,69.38c7.15,13,17.53,32,22.58,47.12,3.84,11.48,6,14,8.35,37.65,3.08,30.69-15.44,74.28-15.44,74.28s.69-30.49-4.9-47.74a65.66,65.66,0,0,1-3-26.79s-3.21,4.36-.9,26.79,7.13,32.24,2.31,43.24S113.89,193.62,113.91,166c0-34.74,5.09-54.07,5.09-54.07l12.45-40.1"/><path class="cls-6" d="M114.56,20.5l-5,2.3-1.66-6.36L104.46,3.13l-9.79,9.65L90.4,17l-2.72-4L82.87,25.71s3.38,2.68,13.89,5.63S112.22,34,112.22,34Z"/><path class="cls-6" d="M122.6,54.83a26.83,26.83,0,0,0-6.72-17.32l-5.94,10.3L102.32,61h23.17C123.7,57.67,122.6,55.45,122.6,54.83Z"/></svg>