<svg id="圖層_1" data-name="圖層 1" xmlns="http://www.w3.org/2000/svg" viewBox="0 0 169 225"><defs><style>.cls-1{fill:#2a4254;}.cls-2{fill:#435868;}.cls-3{fill:#316f9e;}.cls-4{fill:none;stroke:#2a4254;stroke-miterlimit:10;stroke-width:2.23px;}.cls-5{fill:#a1d2f6;}.cls-6{fill:#5694c3;}.cls-7{fill:#282828;}.cls-8{fill:#e58a58;}.cls-9{fill:#ffe245;}.cls-10{fill:#f8f8f8;}</style></defs><title>element</title><path class="cls-1" d="M133.09,131c-4.35-7.89-7.49-13.5-7.49-14.55,0-17.28-18.42-30.85-35.71-30.85A31.29,31.29,0,0,0,64,99.33,31.25,31.25,0,0,1,68.07,127l-.6.49C86.6,144.21,109.92,140,133.09,131Z"/><path class="cls-2" d="M133.09,131c-23.17,9-46.49,13.26-65.62-3.46-20.16,16-35.35,48.6-40.24,88.23H164a194.61,194.61,0,0,0-8.35-37.65C150.62,163,140.24,143.91,133.09,131Z"/><path class="cls-2" d="M85.42,164.79S63.18,154.48,55,149.94c-9.29-5.14-27.09-12-30.81-8.44s7.6,21.79,18.63,34.67S76.72,206.5,76.72,206.5Z"/><path class="cls-3" d="M46.57,105.51c-2,0-3.77,2.2-4.68,3.6-1.67-2.3-5.85-7.3-10.75-7.3-6.36,0-11.51,8.43-11.51,8.43s5.15,8.43,11.51,8.43c4.9,0,9.08-5,10.75-7.3.91,1.4,2.66,3.6,4.68,3.6,3,0,5.34-4.73,5.34-4.73S49.52,105.51,46.57,105.51Zm-20.36,3.7a1,1,0,1,1,1-1A1,1,0,0,1,26.21,109.21Z"/><line class="cls-4" x1="32.99" y1="187.58" x2="32.99" y2="76.92"/><path class="cls-5" d="M16.29,125.27S18.68,130,21.64,130c2,0,3.76-2.2,4.67-3.6,1.67,2.3,5.85,7.3,10.75,7.3,6.36,0,11.51-8.43,11.51-8.43s-5.15-8.43-11.51-8.43c-4.9,0-9.08,5-10.75,7.3-.91-1.4-2.66-3.6-4.67-3.6C18.68,120.54,16.29,125.27,16.29,125.27ZM41,123.21a1,1,0,1,1,1,1A1,1,0,0,1,41,123.21Z"/><path class="cls-6" d="M16.29,95.21s2.39,4.73,5.35,4.73c2,0,3.76-2.2,4.67-3.6,1.67,2.3,5.85,7.3,10.75,7.3,6.36,0,11.51-8.43,11.51-8.43s-5.15-8.43-11.51-8.43c-4.9,0-9.08,5-10.75,7.3-.91-1.4-2.66-3.6-4.67-3.6C18.68,90.48,16.29,95.21,16.29,95.21ZM41,93.15a1,1,0,1,1,1,1A1,1,0,0,1,41,93.15Z"/><path class="cls-7" d="M39.36,66.94a6.91,6.91,0,1,0-13.19,0,6.9,6.9,0,1,0,5.31,11.71A4.74,4.74,0,0,1,30.4,82.5q2.35,3,4.73,0A4.79,4.79,0,0,1,34,78.65a6.9,6.9,0,1,0,5.32-11.71Z"/><polygon class="cls-8" points="68.23 94.27 45.38 89.96 85.93 105.82 68.23 94.27"/><polygon class="cls-1" points="68.23 94.27 45.38 89.96 77.11 89.96 68.23 94.27"/><path class="cls-9" d="M125.6,116.4a26.86,26.86,0,0,0-6.72-17.32l-5.94,10.3-7.62,13.19h23.17C126.7,119.24,125.6,117,125.6,116.4Z"/><path class="cls-10" d="M123,204c-7-21-3.57-47-12-59.79-.74-1.14-1.49-2.22-2.25-3.28a2.91,2.91,0,0,1,.73-.14,47,47,0,0,0,24.92-7.38c-2.9-5.28-5.39-9.73-7-12.77l-5.11-3-10.87-3.92L99.17,130.38a27.81,27.81,0,0,0-18-6.39,27,27,0,0,0-22.43,11.92C39.52,165.4,31.42,189.22,28,215.72H128C127,211.68,124.26,207.76,123,204Z"/><path class="cls-9" d="M117.56,82.07l-5,2.3L110.92,78,107.46,64.7l-9.79,9.66L93.4,78.57l-2.72-4.06L85.87,87.28S89.25,90,99.76,92.91s15.46,2.61,15.46,2.61Z"/></svg>