<svg id="圖層_1" data-name="圖層 1" xmlns="http://www.w3.org/2000/svg" viewBox="0 0 169 225"><defs><style>.cls-1{fill:#435868;}.cls-2,.cls-5{fill:none;stroke-miterlimit:10;}.cls-2{stroke:#5694c3;stroke-width:1.5px;}.cls-3{fill:#a1d2f6;}.cls-4{fill:#5694c3;}.cls-5{stroke:#2a4254;stroke-width:2.23px;}.cls-6{fill:#2a4254;}.cls-7{fill:#e58a58;}.cls-8{fill:#f8f8f8;}.cls-9{fill:#ffe245;}.cls-10{fill:#282828;}</style></defs><title>element</title><path class="cls-1" d="M85.42,164.79S63.18,154.48,55,149.94c-9.29-5.14-27.09-12-30.81-8.44s7.6,21.79,18.63,34.67S76.72,206.5,76.72,206.5Z"/><path class="cls-2" d="M112.42,88s20.92,4.19,29.29,28.25,11.51,62.78,16.74,75.33"/><path class="cls-2" d="M109.28,91.14s20.92,4.18,29.29,28.25,11.51,62.78,16.74,75.33"/><path class="cls-3" d="M34,92.62s5,1.65,7.13-.43c1.42-1.43,1.11-4.22.76-5.85,2.8.45,9.3,1,12.76-2.43,4.5-4.5,2.19-14.11,2.19-14.11S47.24,67.48,42.75,72c-3.47,3.46-2.9,10-2.45,12.75-1.63-.34-4.43-.66-5.85.77C32.36,87.58,34,92.62,34,92.62ZM50,73.73a1,1,0,1,1,1.46,0A1,1,0,0,1,50,73.73Z"/><path class="cls-4" d="M31.55,85.5c-1.42-1.43-4.22-1.11-5.85-.77.45-2.8,1-9.29-2.45-12.75-4.49-4.5-14.1-2.18-14.1-2.18s-2.31,9.61,2.19,14.11c3.46,3.46,10,2.88,12.76,2.43-.35,1.63-.66,4.42.76,5.85,2.09,2.08,7.13.43,7.13.43S33.64,87.58,31.55,85.5Zm-17-11.77a1,1,0,1,1,1.46,0A1,1,0,0,1,14.53,73.73Z"/><line class="cls-5" x1="32.99" y1="187.58" x2="32.99" y2="76.92"/><path class="cls-6" d="M133.09,131c-4.35-7.89-7.49-13.5-7.49-14.55,0-17.28-18.42-30.85-35.71-30.85A31.29,31.29,0,0,0,64,99.33,31.25,31.25,0,0,1,68.07,127l-.6.49C86.6,144.21,109.92,140,133.09,131Z"/><path class="cls-1" d="M133.09,131c-23.17,9-46.49,13.26-65.62-3.46-20.16,16-35.35,48.6-40.24,88.23H164a194.61,194.61,0,0,0-8.35-37.65C150.62,163,140.24,143.91,133.09,131Z"/><polygon class="cls-7" points="68.23 94.27 45.38 89.96 85.93 105.82 68.23 94.27"/><polygon class="cls-6" points="68.23 94.27 45.38 89.96 77.11 89.96 68.23 94.27"/><path class="cls-8" d="M123,204c-7-21-3.57-47-12-59.79-.74-1.14-1.49-2.22-2.25-3.28a2.91,2.91,0,0,1,.73-.14,47,47,0,0,0,24.92-7.38c-2.9-5.28-5.39-9.73-7-12.77l-5.11-3-10.87-3.92L99.17,130.38a27.81,27.81,0,0,0-18-6.39,27,27,0,0,0-22.43,11.92C39.52,165.4,31.42,189.22,28,215.72H128C127,211.68,124.26,207.76,123,204Z"/><path class="cls-9" d="M117,88l-12.78-4.33-1-3.81-2.08-8-5.88,5.79-2.56,2.53-1.63-2.43-2.89,7.66s2,1.61,8.34,3.38S115,95,115,95Z"/><path class="cls-9" d="M125.6,116.4a26.86,26.86,0,0,0-6.72-17.32l-5.94,10.3-7.62,13.19h23.17C126.7,119.24,125.6,117,125.6,116.4Z"/><path class="cls-2" d="M106.14,94.28s20.92,4.18,29.3,28.25,11.5,62.78,16.74,75.33"/><path class="cls-2" d="M103,97.42s20.93,4.18,29.3,28.25S143.81,188.44,149,201"/><path class="cls-10" d="M39.36,66.94a6.91,6.91,0,1,0-13.19,0,6.9,6.9,0,1,0,5.31,11.71A4.74,4.74,0,0,1,30.4,82.5q2.35,3,4.73,0A4.79,4.79,0,0,1,34,78.65a6.9,6.9,0,1,0,5.32-11.71Z"/></svg>