<svg id="圖層_1" data-name="圖層 1" xmlns="http://www.w3.org/2000/svg" viewBox="0 0 169 285"><defs><style>.cls-1{fill:#fff;}.cls-2{fill:#435868;}.cls-3{fill:#f7f7f7;}.cls-4{fill:#2a4254;}</style></defs><title>element</title><path class="cls-1" d="M20.88,229.76a3.67,3.67,0,0,1-1.94-.5c-5.77-3.53-.74-23.28.82-28,.47-1.4.91-2.65,1.33-3.87,1.81-5.15,3.37-9.6,5.89-23,6.09-32.4,32.8-53.07,33.93-53.93a1.49,1.49,0,0,1,1.62-.13,1.51,1.51,0,0,1,.79,1.43c-.22,3-5.54,74.88-15.12,86.24C43.06,214.12,28.14,229.76,20.88,229.76ZM60.06,125.14c-7,6.16-25.37,24.52-30.13,49.85h0c-2.56,13.59-4.16,18.14-6,23.41-.42,1.2-.85,2.43-1.31,3.82-3.38,10.21-4.48,23-2.11,24.48,2.08,1.27,13.93-7,25.4-20.6C52.76,198,58,151.52,60.06,125.14ZM28.45,174.71h0Z"/><path class="cls-1" d="M34.22,226.48a7.21,7.21,0,0,1-3-.59c-2.18-1-3.77-3.08-5-6.63-7.78-22.27,13.2-77.9,28.9-95.14a1.5,1.5,0,0,1,2.6.84l10.37,89.78a1.5,1.5,0,0,1-1.26,1.65c-9.12,1.45-16.1,4.38-21.7,6.74C40.72,225,37.2,226.48,34.22,226.48Zm21-97.71c-14.87,19.18-33,69.73-26.09,89.5.94,2.68,2.05,4.28,3.4,4.88,2.39,1.06,6.22-.55,11.52-2.78a94.08,94.08,0,0,1,21-6.7Z"/><path class="cls-1" d="M34.22,226.48a7.21,7.21,0,0,1-3-.59c-2.18-1-3.77-3.08-5-6.63-7.78-22.27,13.2-77.9,28.9-95.14a1.5,1.5,0,0,1,2.6.84l10.37,89.78a1.5,1.5,0,0,1-1.26,1.65c-9.12,1.45-16.1,4.38-21.7,6.74C40.72,225,37.2,226.48,34.22,226.48Zm21-97.71c-14.87,19.18-33,69.73-26.09,89.5.94,2.68,2.05,4.28,3.4,4.88,2.39,1.06,6.22-.55,11.52-2.78a94.08,94.08,0,0,1,21-6.7Z"/><path class="cls-1" d="M70,277c-9.79,0-19.7-2.81-19.7-8.17s9.91-8.17,19.7-8.17,19.7,2.81,19.7,8.17S79.8,277,70,277Zm0-13.34c-10.19,0-16.7,3.06-16.7,5.17S59.82,274,70,274s16.7-3.07,16.7-5.17S80.21,263.68,70,263.68Z"/><path class="cls-1" d="M90.78,281.6c-9.79,0-19.7-2.81-19.7-8.17s9.91-8.17,19.7-8.17,19.7,2.81,19.7,8.17S100.57,281.6,90.78,281.6Zm0-13.34c-10.2,0-16.7,3.06-16.7,5.17s6.5,5.17,16.7,5.17,16.7-3.06,16.7-5.17S101,268.26,90.78,268.26Z"/><path class="cls-1" d="M85.67,277.26c-21.62,0-38.58-10.65-49-30.8-8.27-15.94-10.47-33.92-10.47-42,0-14.45,12.21-61.82,28.92-80.25a28.62,28.62,0,0,1,7.18-6.92l0,0c.43-.36.85-.72,1.29-1.06a1.5,1.5,0,0,1,1-.32,28.52,28.52,0,0,1,13.59-3.45,29.11,29.11,0,0,1,17.68,5.77l11.42-15.4a1.49,1.49,0,0,1,1.71-.51l10.87,3.92.24.11,5.11,2.95a1.7,1.7,0,0,1,.58.61c1.14,2.2,2.78,5.16,4.67,8.59l2.29,4.16c8,14.52,16.75,31.21,21.33,44.91,4.19,12.54,5.14,33.22,2.6,56.75h0C155,240.19,144.61,277.26,85.67,277.26ZM64.93,119l-.7.58-.09.08-.13.1a25.61,25.61,0,0,0-6.54,6.3,1.47,1.47,0,0,1-.1.13c-15.15,16.63-28.2,62.71-28.2,78.29,0,7.84,2.13,25.22,10.14,40.65,10,19.36,25.64,29.18,46.36,29.18,56.51,0,66.41-35.19,68-50.33,2.46-22.77,1.54-43.51-2.47-55.47-4.5-13.48-13.2-30-21.11-44.42l-2.28-4.15c-1.8-3.25-3.36-6.08-4.51-8.26L118.72,109l-9.69-3.5L97.37,121.18a1.45,1.45,0,0,1-1,.59,1.49,1.49,0,0,1-1.13-.31,26.39,26.39,0,0,0-17-6.06,25.53,25.53,0,0,0-12.65,3.36A1.5,1.5,0,0,1,64.93,119ZM155.2,224.1h0Z"/><path class="cls-1" d="M85.67,277.26c-21.62,0-38.58-10.65-49-30.8-8.27-15.94-10.47-33.92-10.47-42,0-14.45,12.21-61.82,28.92-80.25a28.62,28.62,0,0,1,7.18-6.92l0,0c.43-.36.85-.72,1.29-1.06a1.5,1.5,0,0,1,1-.32,28.52,28.52,0,0,1,13.59-3.45,29.11,29.11,0,0,1,17.68,5.77l11.42-15.4a1.49,1.49,0,0,1,1.71-.51l10.87,3.92.24.11,5.11,2.95a1.7,1.7,0,0,1,.58.61c1.14,2.2,2.78,5.16,4.67,8.59l2.29,4.16c8,14.52,16.75,31.21,21.33,44.91,4.19,12.54,5.14,33.22,2.6,56.75h0C155,240.19,144.61,277.26,85.67,277.26ZM64.93,119l-.7.58-.09.08-.13.1a25.61,25.61,0,0,0-6.54,6.3,1.47,1.47,0,0,1-.1.13c-15.15,16.63-28.2,62.71-28.2,78.29,0,7.84,2.13,25.22,10.14,40.65,10,19.36,25.64,29.18,46.36,29.18,56.51,0,66.41-35.19,68-50.33,2.46-22.77,1.54-43.51-2.47-55.47-4.5-13.48-13.2-30-21.11-44.42l-2.28-4.15c-1.8-3.25-3.36-6.08-4.51-8.26L118.72,109l-9.69-3.5L97.37,121.18a1.45,1.45,0,0,1-1,.59,1.49,1.49,0,0,1-1.13-.31,26.39,26.39,0,0,0-17-6.06,25.53,25.53,0,0,0-12.65,3.36A1.5,1.5,0,0,1,64.93,119ZM155.2,224.1h0Z"/><path class="cls-1" d="M125.49,114H102.32a1.52,1.52,0,0,1-1.3-.75,1.49,1.49,0,0,1,0-1.5l13.57-23.49A1.49,1.49,0,0,1,117,88a28.37,28.37,0,0,1,7.07,18.21,36.3,36.3,0,0,0,2.72,5.54,1.51,1.51,0,0,1-1.33,2.21Zm-20.57-3H123c-1.59-3.06-1.9-4-1.9-4.67a24.77,24.77,0,0,0-5-14.65Zm19.18-4.68h0Z"/><path class="cls-1" d="M95.34,127.6a47.52,47.52,0,0,1-17.9-3.3c-4.4-1.83-8.93-3.72-13.48-5.56a1.51,1.51,0,0,1-.37-2.57l.19-.14A29.8,29.8,0,0,0,59.73,90.1a1.49,1.49,0,0,1,0-1.7A32.8,32.8,0,0,1,86.89,74c17.54,0,37.15,13.8,37.21,32.27.26,1.13,3.21,6.48,6.34,12.15l.23.42a1.49,1.49,0,0,1,.07,1.3,1.54,1.54,0,0,1-1,.87l-1.35.38C117.53,124.44,106.4,127.6,95.34,127.6Zm-28.61-11c4,1.64,8,3.29,11.85,4.9,15.71,6.29,32.4,1.66,48.55-2.92-4.87-8.84-6-11.12-6-12.29C121.1,89.51,103,77,86.89,77a29.76,29.76,0,0,0-24.11,12.3,32.74,32.74,0,0,1,4,27.36ZM124.1,106.3h0Z"/><path class="cls-1" d="M87.27,111.73a31.78,31.78,0,0,1-12-2.21q-4.46-1.86-8.88-3.67a1.5,1.5,0,0,1-.38-2.56,19,19,0,0,0-2.64-16.47,1.51,1.51,0,0,1,0-1.7A22.08,22.08,0,0,1,81.7,75.38c11.77,0,24.93,9.26,25,21.69.27.85,2.22,4.38,4.1,7.8l.17.3a1.51,1.51,0,0,1-.9,2.17l-.89.25C102,109.64,94.62,111.73,87.27,111.73Zm-18.23-8c2.46,1,4.92,2,7.38,3,10,4,20.66,1.16,31-1.77-3.09-5.62-3.73-6.9-3.73-7.77,0-10.77-11.62-18.82-22-18.82A19.1,19.1,0,0,0,66.44,86,22.07,22.07,0,0,1,69,103.69Z"/><path class="cls-1" d="M82.93,97.23a1.52,1.52,0,0,1-.55-.1L41.83,81.26a1.5,1.5,0,0,1,.83-2.87L65.51,82.7a1.58,1.58,0,0,1,.54.22l17.7,11.56a1.5,1.5,0,0,1-.82,2.75ZM57.85,84.31,69.93,89l-5.27-3.44Z"/><path class="cls-1" d="M82.42,96.9a1.56,1.56,0,0,1-.82-.24L64.66,85.59,42.1,81.34a1.5,1.5,0,0,1,.28-3H74.11a1.52,1.52,0,0,1,1.33.8L83.75,94.7a1.49,1.49,0,0,1-1.33,2.2Zm-24-15.54,7.08,1.34a1.58,1.58,0,0,1,.54.22l12.29,8-5.13-9.58Z"/><path class="cls-1" d="M130.68,236.52a6.25,6.25,0,0,1-2.35-.5c-9.1-3.69-22-28.16-22-46.11,0-26,1.14-29.4,4.87-40.7l.3-.93c4-12.09,16.13-28.19,16.65-28.87a1.49,1.49,0,0,1,2.48.13c.5.84,12.33,20.65,17.36,32.08.65,1.48,1.25,2.77,1.81,4,2.8,6,4.66,9.91,6.66,25.09a52.54,52.54,0,0,1-12,40.44,1.5,1.5,0,0,1-2.42-.32c-.1-.19-1.9-3.61-5.21-11,.23,1.05.46,2.05.68,3,2.07,9.14,3.44,15.18-3.38,22.21A4.68,4.68,0,0,1,130.68,236.52ZM129.22,123c-3.3,4.57-11.79,16.87-14.86,26.19l-.3.93c-3.71,11.23-4.7,14.25-4.72,39.76,0,17.44,12.9,40.4,20.11,43.33,1.41.57,2.08.15,2.5-.28,5.69-5.86,4.59-10.69,2.6-19.46-.78-3.48-1.68-7.43-2.33-12.21-.18-1.34-.35-2.6-.5-3.77a38.26,38.26,0,0,1-1.59-17.1,1.5,1.5,0,0,1,3,.37c0,.12-.11,3.05,1.56,16.06.38,1.18.82,2.4,1.35,3.65,3.67,8.62,6.28,14.13,7.62,16.85,3.51-4.62,12.24-18.21,9.86-36.27-1.94-14.72-3.71-18.5-6.39-24.22-.58-1.22-1.19-2.52-1.85-4C141.2,143.63,132.38,128.4,129.22,123Z"/><path class="cls-1" d="M140.39,236.26a1.9,1.9,0,0,1-.4,0,1.51,1.51,0,0,1-1.1-1.49c0-.22.61-22.33-4.62-34.61-.48-1.13-.9-2.23-1.25-3.31.08.8.19,1.64.31,2.52.71,5.24,1.66,9.5,2.49,13.26,1.82,8.18,3,13.59-.44,19.61a3.89,3.89,0,0,1-4.63,1.93c-8.39-2.25-22.59-28.44-22.58-45.44,0-22.09,2.15-29.87,4-36.74.32-1.17.64-2.33.94-3.54,2.11-8.42,14.4-28.79,14.92-29.65a1.5,1.5,0,0,1,1.28-.73h0a1.5,1.5,0,0,1,1.28.73c.53.88,13.13,21.69,18,32.78.63,1.44,1.21,2.69,1.76,3.85,2.72,5.79,4.51,9.62,6.45,24.35,3,22.89-14.41,54.43-15.16,55.76A1.48,1.48,0,0,1,140.39,236.26Zm-11-113.81c-3.25,5.52-11.69,20.23-13.3,26.68-.3,1.23-.63,2.41-1,3.61-1.84,6.68-3.92,14.26-3.93,35.95,0,17.29,14.44,40.95,20.35,42.53a.93.93,0,0,0,1.26-.53c2.89-5,1.84-9.69.11-17.46-.85-3.81-1.81-8.14-2.54-13.51-2.22-16.44.68-20.39,1.28-21a1.52,1.52,0,0,1,1.77-.29,1.49,1.49,0,0,1,.78,1.61A36.41,36.41,0,0,0,137,198.93c3.75,8.82,4.66,21.92,4.85,29.62,4.87-10.07,14.17-32,12-48.43-1.88-14.26-3.6-17.93-6.2-23.47-.55-1.18-1.15-2.45-1.79-3.91C142,143.88,132.77,128.16,129.36,122.45Z"/><path class="cls-2" d="M28.45,174.71c-3.13,16.64-4.82,19.66-7.26,27-2.77,8.35-5.38,23.84-1.47,26.23s18-9.84,27.33-20.91,14.77-85.38,14.77-85.38S34.51,142.5,28.45,174.71Z"/><path class="cls-3" d="M56.26,125.13c-16,17.6-35.93,72.63-28.59,93.64,5,14.29,14.71,0,39-3.86Z"/><ellipse class="cls-4" cx="70.01" cy="268.85" rx="18.2" ry="6.67"/><ellipse class="cls-4" cx="90.78" cy="273.43" rx="18.2" ry="6.67"/><path class="cls-2" d="M155.2,224.1c2.65-24.54,1.31-44.64-2.53-56.12-4.74-14.16-14.18-31.83-21.22-44.66h0c-.1-.17-.19-.34-.28-.51-.63-1.13-1.24-2.24-1.81-3.29h0c-2-3.62-3.7-6.69-4.89-9l-5.11-3-10.87-3.92L96.17,120.29a27.81,27.81,0,0,0-18-6.39,27,27,0,0,0-13.4,3.56l-.26-.11c-.46.36-.91.73-1.36,1.11a27.39,27.39,0,0,0-6.91,6.67c-16,17.6-28.59,64.16-28.59,79.3s8.15,71.33,58,71.33S152.55,248.63,155.2,224.1Z"/><path class="cls-4" d="M122.6,106.31A26.83,26.83,0,0,0,115.88,89l-5.94,10.3-7.62,13.19h23.17C123.7,109.15,122.6,106.93,122.6,106.31Z"/><path class="cls-4" d="M129.36,119.52c-4-7.18-6.76-12.23-6.76-13.21,0-17.28-18.42-30.85-35.71-30.85A31.29,31.29,0,0,0,61,89.24a31.25,31.25,0,0,1,4.12,27.67l-.54.44c4.49,1.82,9,3.69,13.47,5.56C94.81,129.63,112.32,124.35,129.36,119.52Z"/><path class="cls-3" d="M109.67,105.9c-2.61-4.73-4.45-8.06-4.45-8.7,0-11.39-12.13-20.32-23.52-20.32A20.57,20.57,0,0,0,64.62,86a20.59,20.59,0,0,1,2.71,18.22l-.36.28q4.44,1.8,8.88,3.67C86.92,112.55,98.45,109.07,109.67,105.9Z"/><polygon class="cls-4" points="65.23 84.17 42.38 79.86 82.93 95.73 65.23 84.17"/><polygon class="cls-4" points="65.23 84.17 42.38 79.86 74.11 79.86 82.42 95.4 65.23 84.17"/><path class="cls-3" d="M129.36,120.31s-12.48,16.45-16.42,28.44-5.08,14.71-5.1,41.16c0,21,18.45,51,25.18,44.09,8.65-8.9,3-15.84.69-32.91s-2.11-20.4-2.11-20.4-1.73,9.22,3,20.4c5.59,13.13,8.7,19,8.7,19s14.73-15.85,11.65-39.22c-2.38-18-4.52-19.92-8.36-28.66C141.58,140.75,129.36,120.31,129.36,120.31Z"/><path class="cls-2" d="M129.36,119.52s-12.68,21-14.75,29.25-4.93,14.26-4.94,39.91c0,20.38,19.74,50.88,24.41,42.76s0-15.37-2.24-31.92.87-19.78.87-19.78-1.68,8.94,2.94,19.78c5.42,12.73,4.74,35.24,4.74,35.24s18-32.17,15-54.83c-2.31-17.49-4.38-19.32-8.11-27.79C142.38,141,129.36,119.52,129.36,119.52Z"/></svg>