<svg id="圖層_1" data-name="圖層 1" xmlns="http://www.w3.org/2000/svg" viewBox="0 0 169 225"><defs><style>.cls-1{fill:#2a4254;}.cls-2,.cls-5{fill:none;stroke-miterlimit:10;}.cls-2{stroke:#5694c3;stroke-width:1.37px;}.cls-3{fill:#a1d2f6;}.cls-4{fill:#5694c3;}.cls-5{stroke:#2a4254;stroke-width:2.23px;}.cls-6{fill:#e58a58;}.cls-7{fill:#f8f8f8;}.cls-8{fill:#ffe245;}.cls-9{fill:#e8473e;}</style></defs><title>element</title><path class="cls-1" d="M85.42,164.79S63.18,154.48,55,149.94c-9.29-5.14-27.09-12-30.81-8.44s7.6,21.79,18.63,34.67S76.72,206.5,76.72,206.5Z"/><path class="cls-2" d="M116.77,98.77s19.16,3.83,26.82,25.87,10.54,57.48,15.33,69"/><path class="cls-2" d="M113.89,101.64s19.16,3.83,26.83,25.87,10.54,57.49,15.33,69"/><path class="cls-1" d="M85.42,164.79S63.18,154.48,55,149.94c-9.29-5.14-27.09-12-30.81-8.44s7.6,21.79,18.63,34.67S76.72,206.5,76.72,206.5Z"/><path class="cls-3" d="M34,92.62s5,1.65,7.13-.43c1.42-1.43,1.11-4.22.76-5.85,2.8.45,9.3,1,12.76-2.43,4.5-4.5,2.19-14.11,2.19-14.11S47.24,67.48,42.75,72c-3.47,3.46-2.9,10-2.45,12.75-1.63-.34-4.43-.66-5.85.77C32.36,87.58,34,92.62,34,92.62ZM50,73.73a1,1,0,1,1,1.46,0A1,1,0,0,1,50,73.73Z"/><path class="cls-4" d="M31.55,85.5c-1.42-1.43-4.22-1.11-5.85-.77.45-2.8,1-9.29-2.45-12.75-4.49-4.5-14.1-2.18-14.1-2.18s-2.31,9.61,2.19,14.11c3.46,3.46,10,2.88,12.76,2.43-.35,1.63-.66,4.42.76,5.85,2.09,2.08,7.13.43,7.13.43S33.64,87.58,31.55,85.5Zm-17-11.77a1,1,0,1,1,1.46,0A1,1,0,0,1,14.53,73.73Z"/><line class="cls-5" x1="32.99" y1="215.34" x2="32.99" y2="80.54"/><path class="cls-1" d="M156.35,181.14c-7.45-22.28-27.63-54.12-27.63-56.65,0-15.88-16.91-28.34-32.79-28.34A28.72,28.72,0,0,0,72.1,108.81a28.67,28.67,0,0,1,3.78,25.42c-18.79,14.52-33,44.72-37.51,81.49H164A178.92,178.92,0,0,0,156.35,181.14Z"/><polygon class="cls-6" points="76.03 104.15 55.04 100.2 92.29 114.77 76.03 104.15"/><polygon class="cls-1" points="76.03 104.15 55.04 100.2 84.19 100.2 76.03 104.15"/><path class="cls-6" d="M128.72,124.49a24.66,24.66,0,0,0-6.16-15.91L117.1,118l-7,12.12h21.29C129.74,127.09,128.72,125.05,128.72,124.49Z"/><path class="cls-7" d="M126.34,205c-6.44-19.27-3.28-43.15-11-54.93-.69-1.05-5.26-8.68-10.92-12.7s-10.1-5.87-16.51-5.87a24.83,24.83,0,0,0-20.61,10.95c-17.67,27.09-25.12,49-28.26,73.31h91.86C130,212,127.5,208.41,126.34,205Z"/><path class="cls-8" d="M121,98.77l-11.7-4-.91-3.5L106.45,84l-5.38,5.3-2.35,2.32-1.49-2.23-2.64,7s1.85,1.47,7.63,3.09,16.91,5.68,16.91,5.68Z"/><path class="cls-2" d="M111,104.52s19.16,3.83,26.83,25.86,10.53,57.49,15.32,69"/><path class="cls-2" d="M108.14,107.39s19.17,3.83,26.83,25.87,10.54,57.48,15.33,69"/><polygon class="cls-9" points="45.53 71.65 33.24 85.31 20.96 71.65 33.24 58 45.53 71.65"/></svg>